<?xml version="1.0" encoding="UTF-8" standalone="no"?>
<!-- Created with Inkscape (http://www.inkscape.org/) -->

<svg
   xmlns:dc="http://purl.org/dc/elements/1.1/"
   xmlns:cc="http://creativecommons.org/ns#"
   xmlns:rdf="http://www.w3.org/1999/02/22-rdf-syntax-ns#"
   xmlns:svg="http://www.w3.org/2000/svg"
   xmlns="http://www.w3.org/2000/svg"
   xmlns:sodipodi="http://sodipodi.sourceforge.net/DTD/sodipodi-0.dtd"
   xmlns:inkscape="http://www.inkscape.org/namespaces/inkscape"
   width="1169"
   height="1169"
   viewBox="0 0 1169 1169"
   version="1.1"
   id="svg8"
   inkscape:version="0.92.2 (5c3e80d, 2017-08-06)"
   sodipodi:docname="gong_logo.svg">
  <defs
     id="defs2" />
  <sodipodi:namedview
     id="base"
     pagecolor="#ffffff"
     bordercolor="#666666"
     borderopacity="1.0"
     inkscape:pageopacity="0.0"
     inkscape:pageshadow="2"
     inkscape:zoom="0.63072392"
     inkscape:cx="614.9052"
     inkscape:cy="407.18384"
     inkscape:document-units="px"
     inkscape:current-layer="layer3"
     showgrid="false"
     inkscape:window-width="3200"
     inkscape:window-height="1690"
     inkscape:window-x="0"
     inkscape:window-y="54"
     inkscape:window-maximized="1"
     inkscape:measure-start="4616.92,2520.91"
     inkscape:measure-end="3867.81,1914.84"
     units="px"
     scale-x="1"
     showborder="true" />
  <metadata
     id="metadata5">
    <rdf:RDF>
      <cc:Work
         rdf:about="">
        <dc:format>image/svg+xml</dc:format>
        <dc:type
           rdf:resource="http://purl.org/dc/dcmitype/StillImage" />
        <dc:title />
      </cc:Work>
    </rdf:RDF>
  </metadata>
  <g
     inkscape:groupmode="layer"
     id="layer3"
     inkscape:label="Parts"
     style="display:inline"
     transform="translate(900.18518,448.14341)">
    <rect
       style="display:none;fill:#f1f1f1;fill-opacity:1;stroke:#000000;stroke-width:0;stroke-miterlimit:4;stroke-dasharray:none;stroke-dashoffset:0;stroke-opacity:1"
       id="rect828"
       width="1500"
       height="1500"
       x="-1065.6852"
       y="-613.64343"
       inkscape:label="background" />
    <rect
       style="display:none;fill:#000000;fill-opacity:0;stroke:#00ff00;stroke-width:1.33570182;stroke-miterlimit:4;stroke-dasharray:none;stroke-dashoffset:0;stroke-opacity:1"
       id="rect6180"
       width="1167.6643"
       height="1167.6643"
       x="-899.51733"
       y="-447.47556"
       inkscape:export-xdpi="16.424294"
       inkscape:export-ydpi="16.424294"
       inkscape:label="selection" />
    <path
       inkscape:connector-curvature="0"
       style="display:inline;opacity:1;fill:#1b1b1b;fill-opacity:1;stroke-width:0"
       d="m -87.036133,477.93135 a 15.449929,15.449948 54 0 1 -15.122407,1.95072 l -46.02498,-18.8017 -10.69879,6.27148 -6.08377,49.34109 a 15.449929,15.449948 54 0 1 -23.85135,10.99659 l -41.47215,-27.41836 -11.71342,4.06091 -15.59545,47.20815 a 15.449929,15.449948 54 0 1 -25.53905,6.13175 l -35.3253,-34.98412 -12.28463,1.69964 -24.50218,43.25958 a 15.449929,15.449948 54 0 1 -26.2441,1.03098 l -27.823,-41.20257 -12.37941,-0.73022 -32.47144,37.64731 a 15.449929,15.449948 54 0 1 -25.94019,-4.10993 l -19.24622,-45.8358 -12.0003,-3.13252 -39.19198,30.58706 a 15.449929,15.449948 54 0 1 -24.64103,-9.0904 l -9.93545,-48.7112 -11.15816,-5.41261 -44.40707,22.35577 a 15.449929,15.449948 54 0 1 -22.3958,-13.72246 l -0.2425,-49.71805 -9.88364,-7.48296 -47.91664,13.26198 a 15.449929,15.449948 54 0 1 -19.28429,-17.83 l 9.45964,-48.80504 -8.23831,-9.27223 -49.57963,3.6594 a 15.449929,15.449948 54 0 1 -15.4374,-21.24776 l 18.80125,-46.02221 -6.27265,-10.70039 -49.33954,-6.08493 a 15.449929,15.449948 54 0 1 -10.99816,-23.85022 l 27.41833,-41.47213 -4.06091,-11.71341 -47.20972,-15.59433 a 15.449929,15.449948 54 0 1 -6.13015,-25.54013 l 34.98411,-35.32536 -1.69963,-12.28464 -43.25686,-24.501718 a 15.449929,15.449948 54 0 1 -1.03099,-26.244111 l 41.19942,-27.820702 0.73066,-12.382162 -37.64615,-32.4698449 a 15.449929,15.449948 54 0 1 4.10832,-25.9390591 l 45.83625,-19.248932 3.13253,-12.000311 -30.58705,-39.191949 a 15.449929,15.449948 54 0 1 9.09041,-24.641031 l 48.71113,-9.93546 5.41306,-11.1609 -22.35347,-44.40389 a 15.449929,15.449948 54 0 1 13.72364,-22.39426 l 49.71416,-0.24451 7.48339,-9.88632 -13.26082,-47.91511 a 15.449929,15.449948 54 0 1 17.82999,-19.28428 l 48.80343,9.46082 9.27224,-8.23832 -3.6579,-49.58089 a 15.449929,15.449948 54 0 1 21.24775,-15.43741 l 46.02231,18.80136 10.7004,-6.27266 6.08335,-49.33839 a 15.449929,15.449948 54 0 1 23.85019,-10.99814 l 41.47215,27.41837 11.71498,-4.0621 15.59506,-47.20543 a 15.449929,15.449948 54 0 1 25.539,-6.13172 l 35.32302,34.98096 12.28736,-1.6992 24.5018,-43.25685 a 15.449929,15.449948 54 0 1 26.24407,-1.03096 l 27.82185,41.20098 12.38099,0.72907 32.46939,-37.64344 a 15.449929,15.449948 54 0 1 25.94067,4.10718 l 19.24735,45.83736 12.0019,3.13143 39.19039,-30.58592 a 15.449929,15.449948 54 0 1 24.64103,9.09041 l 9.93541,48.71117 11.1582,5.41259 44.40706,-22.35572 a 15.449929,15.449948 54 0 1 22.39424,13.7236 l 0.24404,49.71688 9.88523,7.4818 47.915051,-13.26076 a 15.449929,15.449948 54 0 1 19.28587,17.82883 l -9.461162,48.80616 8.238279,9.27224 49.579684,-3.65943 a 15.449929,15.449948 54 0 1 15.437403,21.24776 l -18.8012981,46.02225 6.2726561,10.70036 49.341082,6.08383 a 15.449929,15.449948 54 0 1 10.996568,23.85136 l -27.419912,41.473237 4.062504,11.712263 47.208168,15.595492 a 15.449929,15.449948 54 0 1 6.131727,25.539007 L 70.64348,-5.8617384 72.343095,6.422913 115.59997,30.924667 a 15.449929,15.449948 54 0 1 1.03099,26.244113 L 75.42995,84.990635 74.700884,97.371591 112.34592,129.83988 a 15.449929,15.449948 54 0 1 -4.10881,25.9418 l -45.837358,19.24735 -3.130965,11.99917 30.5882,39.19354 a 15.449929,15.449948 54 0 1 -9.090374,24.64101 l -48.713916,9.93504 -5.412625,11.15815 22.355749,44.40705 a 15.449929,15.449948 54 0 1 -13.723593,22.39424 l -49.716919,0.24406 -7.481794,9.88523 13.2608096,47.9151 a 15.449929,15.449948 54 0 1 -17.8288286,19.28583 l -48.806173,-9.4612 -9.270679,8.23718 3.660572,49.58125 a 15.449929,15.449948 54 0 1 -6.125349,13.48667 z M -145.13086,398.3965 a 30.000021,30.000021 0 0 0 6.63695,-41.90408 30.000021,30.000021 0 0 0 -41.9041,-6.63698 30.000021,30.000021 0 0 0 -6.63692,41.9041 30.000021,30.000021 0 0 0 41.90407,6.63696 z m 33.25792,-81.00798 A 375.00027,375.00027 0 0 0 -16.115814,20.913748 l -68.393711,-34.849401 c -13.859303,-7.061664 -19.332345,-23.903999 -12.270683,-37.763352 l 34.847439,-68.389785 a 375.00027,375.00027 0 0 0 -22.871605,-36.47099 375.00027,375.00027 0 0 0 -229.251146,-146.71275 l -54.27606,54.27874 c -10.99882,10.99883 -28.70971,10.99909 -39.70854,2.8e-4 l -54.28062,-54.28193 a 375.00027,375.00027 0 0 0 -146.28486,63.75369 375.00027,375.00027 0 0 0 -105.875,119.3498 l 34.88869,68.472361 c 7.06167,13.859331 1.58847,30.703295 -12.27084,37.764953 l -68.48402,34.892341 a 375.00027,375.00027 0 0 0 68.77937,263.321655 375.00027,375.00027 0 0 0 27.3457,33.06587 l 76.08356,-12.0518 c 15.36321,-2.43327 29.68995,7.97648 32.12323,23.33963 l 12.05278,76.09495 a 375.00027,375.00027 0 0 0 311.58314,-0.18991 l 12.02215,-75.90478 c 2.43328,-15.36316 16.76051,-25.7725 32.12367,-23.33921 z M -6.1584126,-30.133556 a 30.000021,30.000021 0 0 0 11.2439617,-33.788691 30.000021,30.000021 0 0 0 -37.8029781,-19.261322 30.000021,30.000021 0 0 0 -19.26129,37.803004 30.000021,30.000021 0 0 0 37.802963,19.26132 30.000021,30.000021 0 0 0 8.0173434,-4.014311 z M -594.93967,397.60831 a 30.000021,30.000021 0 0 0 5.60233,-5.84961 30.000021,30.000021 0 0 0 -6.63682,-41.90486 30.000021,30.000021 0 0 0 -41.90486,6.63687 30.000021,30.000021 0 0 0 6.63683,41.90483 30.000021,30.000021 0 0 0 36.30252,-0.78723 z m 223.69152,-692.49802 a 30.000021,30.000021 0 0 0 0.002,-0.001 30.000021,30.000021 0 0 0 13.05945,-24.76049 30.000021,30.000021 0 0 0 -29.99997,-30.00032 30.000021,30.000021 0 0 0 -30.00037,29.99995 30.000021,30.000021 0 0 0 29.99998,30.00036 30.000021,30.000021 0 0 0 16.93932,-5.23835 z m -365.09069,265.235252 a 30.000021,30.000021 0 0 0 11.94484,-15.727876 30.000021,30.000021 0 0 0 -19.26152,-37.802301 30.000021,30.000021 0 0 0 -37.80228,19.261564 30.000021,30.000021 0 0 0 19.26152,37.802237 30.000021,30.000021 0 0 0 25.85744,-3.533624 z"
       id="path2"
       inkscape:label="ring" />
    <g
       id="g852"
       inkscape:label="handle"
       transform="rotate(-36,-233.9401,-686.98257)"
       style="display:inline">
      <rect
         y="261.79816"
         x="-835.06104"
         height="100"
         width="70"
         id="rect846"
         style="opacity:1;vector-effect:none;fill:#1b1b1b;fill-opacity:1"
         inkscape:label="connector" />
      <rect
         ry="15"
         rx="15"
         y="353.79816"
         x="-870.06104"
         height="800"
         width="140"
         id="rect848"
         style="opacity:1;vector-effect:none;fill:#1b1b1b;fill-opacity:1"
         inkscape:label="handle" />
    </g>
    <text
       inkscape:label="cmd-text"
       id="text872"
       y="177.88226"
       x="-688.27521"
       style="font-style:normal;font-variant:normal;font-weight:normal;font-stretch:normal;font-size:598.5713501px;line-height:77.93897247px;font-family:Caladea;-inkscape-font-specification:'Caladea, Normal';font-variant-ligatures:normal;font-variant-caps:normal;font-variant-numeric:normal;font-feature-settings:normal;text-align:start;letter-spacing:0px;word-spacing:0px;writing-mode:lr-tb;text-anchor:start;display:inline;fill:#77910d;fill-opacity:1;stroke:none;stroke-width:3.11755919px;stroke-linecap:butt;stroke-linejoin:miter;stroke-opacity:1"
       xml:space="preserve"><tspan
         style="font-style:normal;font-variant:normal;font-weight:normal;font-stretch:normal;font-size:598.5713501px;font-family:Caladea;-inkscape-font-specification:'Caladea, Normal';font-variant-ligatures:normal;font-variant-caps:normal;font-variant-numeric:normal;font-feature-settings:normal;text-align:start;writing-mode:lr-tb;text-anchor:start;fill:#77910d;fill-opacity:1;stroke-width:3.11755919px"
         y="177.88226"
         x="-688.27521"
         id="tspan870"
         sodipodi:role="line">&gt;_</tspan></text>
  </g>
</svg>
